<svg xmlns="http://www.w3.org/2000/svg" viewBox="0 0 420 320" width="420" height="320">
  <!-- OPTION D: Text below the cross, spanning full width of bottom quadrants, narrow gap -->
  <g transform="translate(32, 32)">
    <path d="M 0,72 A 72,72 0 0,1 72,0 L 168,0 L 168,108 L 0,108 Z" fill="#7C3AED"/>
    <path d="M 184,0 L 280,0 A 72,72 0 0,1 352,72 L 352,108 L 184,108 Z" fill="#FB923C"/>
    <path d="M 0,124 L 168,124 L 168,250 L 72,250 A 72,72 0 0,1 0,178 Z" fill="#FB923C"/>
    <path d="M 184,124 L 352,124 L 352,178 A 72,72 0 0,1 280,250 L 184,250 Z" fill="#7C3AED"/>
  </g>
  <!-- Wider text across center, with background pill for legibility -->
  <rect x="82" y="147" width="252" height="44" rx="22" fill="white" opacity="0.92"/>
  <text x="208" y="179" font-family="Calibri, 'Segoe UI', sans-serif" font-size="32"
        font-weight="700" font-style="italic" fill="#7C3AED" letter-spacing="-0.5"
        text-anchor="middle">Evaluetor</text>
</svg>
