<svg xmlns="http://www.w3.org/2000/svg" viewBox="0 0 420 320" width="420" height="320">
  <!-- OPTION C: White text band across bottom half, narrow gap, bold presence -->
  <g transform="translate(32, 32)">
    <path d="M 0,72 A 72,72 0 0,1 72,0 L 168,0 L 168,112 L 0,112 Z" fill="#7C3AED"/>
    <path d="M 184,0 L 280,0 A 72,72 0 0,1 352,72 L 352,112 L 184,112 Z" fill="#FB923C"/>
    <path d="M 0,128 L 168,128 L 168,250 L 72,250 A 72,72 0 0,1 0,178 Z" fill="#FB923C"/>
    <path d="M 184,128 L 352,128 L 352,178 A 72,72 0 0,1 280,250 L 184,250 Z" fill="#7C3AED"/>
  </g>
  <!-- White text centered in bottom quadrants -->
  <text x="208" y="230" font-family="Calibri, 'Segoe UI', sans-serif" font-size="36"
        font-weight="800" font-style="italic" fill="white" letter-spacing="-0.5"
        text-anchor="middle">Evaluetor</text>
</svg>
