<svg xmlns="http://www.w3.org/2000/svg" viewBox="0 0 560 240" width="560" height="240">
  <!-- Dark background version -->
  <rect width="560" height="240" fill="#030712" rx="16"/>
  <defs>
    <linearGradient id="grad-d" x1="0%" y1="0%" x2="100%" y2="100%">
      <stop offset="0%" stop-color="#A78BFA"/>
      <stop offset="100%" stop-color="#FB923C"/>
    </linearGradient>
  </defs>
  <g transform="translate(28, 28)">
    <path d="M 0,55 A 55,55 0 0,1 55,0 L 98,0 L 98,78 L 0,78 Z" fill="url(#grad-d)"/>
    <path d="M 118,0 L 163,0 A 55,55 0 0,1 218,55 L 218,78 L 118,78 Z" fill="url(#grad-d)"/>
    <path d="M 0,98 L 98,98 L 98,178 L 55,178 A 55,55 0 0,1 0,123 Z" fill="url(#grad-d)"/>
    <path d="M 118,98 L 218,98 L 218,123 A 55,55 0 0,1 163,178 L 118,178 Z" fill="url(#grad-d)"/>
  </g>
  <text x="280" y="148" font-family="Calibri, 'Segoe UI', sans-serif" font-size="52"
        font-weight="700" font-style="italic" fill="#FFFFFF" letter-spacing="-1">
    Evaluetor
  </text>
</svg>
