<svg xmlns="http://www.w3.org/2000/svg" viewBox="0 0 560 240" width="560" height="240">
  <!-- Two-tone: purple top-left & bottom-right, orange top-right & bottom-left -->
  <g transform="translate(28, 28)">
    <path d="M 0,55 A 55,55 0 0,1 55,0 L 98,0 L 98,78 L 0,78 Z" fill="#7C3AED"/>
    <path d="M 118,0 L 163,0 A 55,55 0 0,1 218,55 L 218,78 L 118,78 Z" fill="#FB923C"/>
    <path d="M 0,98 L 98,98 L 98,178 L 55,178 A 55,55 0 0,1 0,123 Z" fill="#FB923C"/>
    <path d="M 118,98 L 218,98 L 218,123 A 55,55 0 0,1 163,178 L 118,178 Z" fill="#7C3AED"/>
  </g>
  <text x="280" y="148" font-family="Calibri, 'Segoe UI', sans-serif" font-size="52"
        font-weight="700" font-style="italic" fill="#7C3AED" letter-spacing="-1">
    Evaluetor
  </text>
</svg>
