<svg xmlns="http://www.w3.org/2000/svg" viewBox="0 0 420 320" width="420" height="320">
  <!-- V1: Text centered in bottom quadrants (white on color, gap creates subtle break) -->
  <g transform="translate(32, 32)">
    <path d="M 0,72 A 72,72 0 0,1 72,0 L 160,0 L 160,108 L 0,108 Z" fill="#7C3AED"/>
    <path d="M 186,0 L 280,0 A 72,72 0 0,1 352,72 L 352,108 L 186,108 Z" fill="#FB923C"/>
    <path d="M 0,134 L 160,134 L 160,250 L 72,250 A 72,72 0 0,1 0,178 Z" fill="#FB923C"/>
    <path d="M 186,134 L 352,134 L 352,178 A 72,72 0 0,1 280,250 L 186,250 Z" fill="#7C3AED"/>
  </g>
  <text x="208" y="228" font-family="Calibri, 'Segoe UI', sans-serif" font-size="40"
        font-weight="700" font-style="italic" fill="white" letter-spacing="-0.5"
        text-anchor="middle">Evaluetor</text>
</svg>
