<svg xmlns="http://www.w3.org/2000/svg" viewBox="0 0 420 320" width="420" height="320">
  <!-- V4: Text dead center, white, spans across the cross intersection -->
  <g transform="translate(32, 32)">
    <path d="M 0,72 A 72,72 0 0,1 72,0 L 160,0 L 160,108 L 0,108 Z" fill="#7C3AED"/>
    <path d="M 186,0 L 280,0 A 72,72 0 0,1 352,72 L 352,108 L 186,108 Z" fill="#FB923C"/>
    <path d="M 0,134 L 160,134 L 160,250 L 72,250 A 72,72 0 0,1 0,178 Z" fill="#FB923C"/>
    <path d="M 186,134 L 352,134 L 352,178 A 72,72 0 0,1 280,250 L 186,250 Z" fill="#7C3AED"/>
  </g>
  <!-- Centered on shape, white text with subtle shadow for gap visibility -->
  <filter id="shadow" x="-5%" y="-5%" width="110%" height="110%">
    <feDropShadow dx="0" dy="1" stdDeviation="2" flood-color="#2E1065" flood-opacity="0.4"/>
  </filter>
  <text x="208" y="168" font-family="Calibri, 'Segoe UI', sans-serif" font-size="44"
        font-weight="800" font-style="italic" fill="white" letter-spacing="-0.5"
        text-anchor="middle" filter="url(#shadow)">Evaluetor</text>
</svg>
